<svg width="202" height="65" viewBox="0 0 202 65" fill="none" xmlns="http://www.w3.org/2000/svg">
<path d="M36.0096 45.7251C36.0096 56.3703 27.9486 65 18.0048 65C8.06102 65 0 56.3703 0 45.7251C0 35.0799 8.06102 26.4502 18.0048 26.4502C27.9486 26.4502 36.0096 35.0799 36.0096 45.7251ZM6.63667 45.7251C6.63667 52.4464 11.7264 57.8952 18.0048 57.8952C24.2832 57.8952 29.3729 52.4464 29.3729 45.7251C29.3729 39.0038 24.2832 33.555 18.0048 33.555C11.7264 33.555 6.63667 39.0038 6.63667 45.7251Z" fill="black"/>
<path d="M36.0096 45.7251C36.0096 56.3703 27.9486 65 18.0048 65C8.06102 65 0 56.3703 0 45.7251C0 35.0799 8.06102 26.4502 18.0048 26.4502C27.9486 26.4502 36.0096 35.0799 36.0096 45.7251ZM6.63667 45.7251C6.63667 52.4464 11.7264 57.8952 18.0048 57.8952C24.2832 57.8952 29.3729 52.4464 29.3729 45.7251C29.3729 39.0038 24.2832 33.555 18.0048 33.555C11.7264 33.555 6.63667 39.0038 6.63667 45.7251Z" fill="black"/>
<path d="M36.0096 45.7251C36.0096 56.3703 27.9486 65 18.0048 65C8.06102 65 0 56.3703 0 45.7251C0 35.0799 8.06102 26.4502 18.0048 26.4502C27.9486 26.4502 36.0096 35.0799 36.0096 45.7251ZM6.63667 45.7251C6.63667 52.4464 11.7264 57.8952 18.0048 57.8952C24.2832 57.8952 29.3729 52.4464 29.3729 45.7251C29.3729 39.0038 24.2832 33.555 18.0048 33.555C11.7264 33.555 6.63667 39.0038 6.63667 45.7251Z" fill="black"/>
<path d="M36.0096 45.7251C36.0096 56.3703 27.9486 65 18.0048 65C8.06102 65 0 56.3703 0 45.7251C0 35.0799 8.06102 26.4502 18.0048 26.4502C27.9486 26.4502 36.0096 35.0799 36.0096 45.7251ZM6.63667 45.7251C6.63667 52.4464 11.7264 57.8952 18.0048 57.8952C24.2832 57.8952 29.3729 52.4464 29.3729 45.7251C29.3729 39.0038 24.2832 33.555 18.0048 33.555C11.7264 33.555 6.63667 39.0038 6.63667 45.7251Z" fill="#011240"/>
<path d="M65.527 45.7251C65.527 56.3703 57.466 65 47.5222 65C37.5784 65 29.5174 56.3703 29.5174 45.7251C29.5174 35.0799 37.5784 26.4502 47.5222 26.4502C57.466 26.4502 65.527 35.0799 65.527 45.7251ZM36.6721 45.7251C36.6721 52.1401 41.5299 57.3406 47.5222 57.3406C53.5146 57.3406 58.3723 52.1401 58.3723 45.7251C58.3723 39.31 53.5146 34.1096 47.5222 34.1096C41.5299 34.1096 36.6721 39.31 36.6721 45.7251Z" fill="black"/>
<path d="M65.527 45.7251C65.527 56.3703 57.466 65 47.5222 65C37.5784 65 29.5174 56.3703 29.5174 45.7251C29.5174 35.0799 37.5784 26.4502 47.5222 26.4502C57.466 26.4502 65.527 35.0799 65.527 45.7251ZM36.6721 45.7251C36.6721 52.1401 41.5299 57.3406 47.5222 57.3406C53.5146 57.3406 58.3723 52.1401 58.3723 45.7251C58.3723 39.31 53.5146 34.1096 47.5222 34.1096C41.5299 34.1096 36.6721 39.31 36.6721 45.7251Z" fill="black"/>
<path d="M65.527 45.7251C65.527 56.3703 57.466 65 47.5222 65C37.5784 65 29.5174 56.3703 29.5174 45.7251C29.5174 35.0799 37.5784 26.4502 47.5222 26.4502C57.466 26.4502 65.527 35.0799 65.527 45.7251ZM36.6721 45.7251C36.6721 52.1401 41.5299 57.3406 47.5222 57.3406C53.5146 57.3406 58.3723 52.1401 58.3723 45.7251C58.3723 39.31 53.5146 34.1096 47.5222 34.1096C41.5299 34.1096 36.6721 39.31 36.6721 45.7251Z" fill="#FF1D1D"/>
<path d="M65.527 45.7251C65.527 56.3703 57.466 65 47.5222 65C37.5784 65 29.5174 56.3703 29.5174 45.7251C29.5174 35.0799 37.5784 26.4502 47.5222 26.4502C57.466 26.4502 65.527 35.0799 65.527 45.7251ZM36.6721 45.7251C36.6721 52.1401 41.5299 57.3406 47.5222 57.3406C53.5146 57.3406 58.3723 52.1401 58.3723 45.7251C58.3723 39.31 53.5146 34.1096 47.5222 34.1096C41.5299 34.1096 36.6721 39.31 36.6721 45.7251Z" fill="#F21A05"/>
<path d="M58.2987 7.70995C58.2987 3.45186 61.5231 0 65.5006 0V44.2619H58.2987V7.70995Z" fill="#F21A05"/>
<path d="M24.777 34.9356L28.4095 39.57L10.6728 55.5027L7.04032 50.8683L24.777 34.9356Z" fill="black"/>
<path d="M24.777 34.9356L28.4095 39.57L10.6728 55.5027L7.04032 50.8683L24.777 34.9356Z" fill="#011240"/>
<path d="M81.2484 56.918C81.2484 57.4671 81.6587 57.9613 82.2229 57.9613H103.099C103.663 57.9613 104.074 57.4671 104.074 56.918V52.4154C104.074 51.8663 103.663 51.3721 103.099 51.3721H87.9164V41.7627H100.586C101.099 41.7627 101.56 41.3234 101.56 40.7194V36.1618C101.56 35.6127 101.099 35.1185 100.586 35.1185H87.9164V26.1131H103.099C103.663 26.1131 104.074 25.6189 104.074 25.0698V20.5671C104.074 20.018 103.663 19.5238 103.099 19.5238H82.2229C81.6587 19.5238 81.2484 20.018 81.2484 20.5671V56.918Z" fill="#011240"/>
<path d="M110.802 56.918C110.802 57.4671 111.212 57.9613 111.776 57.9613H130.549C131.113 57.9613 131.524 57.4671 131.524 56.918V52.4154C131.524 51.8663 131.113 51.3721 130.549 51.3721H117.47V20.5671C117.47 20.018 117.008 19.5238 116.495 19.5238H111.776C111.212 19.5238 110.802 20.018 110.802 20.5671V56.918Z" fill="#011240"/>
<path d="M136.698 56.918C136.698 57.4671 137.16 57.9613 137.673 57.9613H142.443C142.956 57.9613 143.418 57.4671 143.418 56.918V20.5671C143.418 20.018 142.956 19.5238 142.443 19.5238H137.673C137.16 19.5238 136.698 20.018 136.698 20.5671V56.918Z" fill="#011240"/>
<path d="M157.922 56.918C157.922 57.4671 158.384 57.9613 158.897 57.9613H163.667C164.18 57.9613 164.641 57.4671 164.641 56.918V26.1131H172.489C173.053 26.1131 173.464 25.6189 173.464 25.0698V20.5671C173.464 20.018 173.053 19.5238 172.489 19.5238H150.074C149.51 19.5238 149.1 20.018 149.1 20.5671V25.0698C149.1 25.6189 149.51 26.1131 150.074 26.1131H157.922V56.918Z" fill="#011240"/>
<path d="M179.175 56.918C179.175 57.4671 179.585 57.9613 180.149 57.9613H201.025C201.59 57.9613 202 57.4671 202 56.918V52.4154C202 51.8663 201.59 51.3721 201.025 51.3721H185.843V41.7627H198.512C199.025 41.7627 199.487 41.3234 199.487 40.7194V36.1618C199.487 35.6127 199.025 35.1185 198.512 35.1185H185.843V26.1131H201.025C201.59 26.1131 202 25.6189 202 25.0698V20.5671C202 20.018 201.59 19.5238 201.025 19.5238H180.149C179.585 19.5238 179.175 20.018 179.175 20.5671V56.918Z" fill="#011240"/>
</svg>
