<svg width="204" height="34" viewBox="0 0 204 34" fill="none" xmlns="http://www.w3.org/2000/svg">
<path fill-rule="evenodd" clip-rule="evenodd" d="M16 0L0 27.731H10.5462L15.3424 34V18.3563C12.974 24.009 10.0048 24.6247 5.21149 24.6247L16 6.08899L26.7885 24.6247C21.9954 24.6247 19.026 24.009 16.8768 18.3563V34L21.4538 27.731H32L16 0Z" fill="#1C1B19"/>
<path fill-rule="evenodd" clip-rule="evenodd" d="M52.8574 18.1747L50.6245 13.1604L48.5531 18.1747H52.8574ZM49.946 10.1185H51.3393L57.5459 24.0408H55.5173L53.6726 19.9385H47.7661L46.0367 24.0408H44L49.946 10.1185Z" fill="#1C1B19"/>
<path fill-rule="evenodd" clip-rule="evenodd" d="M67.0547 11.9419H65.003V16.2718H67.1725C67.9796 16.2718 68.5996 16.0821 69.0365 15.7028C69.4717 15.3225 69.6902 14.7794 69.6902 14.0724C69.6902 12.6518 68.8111 11.9419 67.0547 11.9419ZM63.0108 24.0408V10.178H67.4015C68.7221 10.178 69.7753 10.5346 70.5626 11.2481C71.3486 11.962 71.7409 12.9198 71.7409 14.1221C71.7409 14.9279 71.5398 15.6414 71.1371 16.2627C70.7341 16.883 70.1819 17.3342 69.4824 17.6148C68.7818 17.8957 67.7776 18.0357 66.4697 18.0357H65.003V24.0408H63.0108Z" fill="#1C1B19"/>
<path fill-rule="evenodd" clip-rule="evenodd" d="M77.5234 10.1979H85.3707V11.9618H79.5052V16.1833H85.1733V17.9569H79.5052V22.257H85.5597V24.0212H77.5234V10.1979Z" fill="#1C1B19"/>
<path fill-rule="evenodd" clip-rule="evenodd" d="M94.3647 11.8824H93.7704V16.2527H94.5235C95.5281 16.2527 96.2156 16.1669 96.5895 15.9948C96.9629 15.823 97.254 15.5635 97.4618 15.2169C97.6693 14.8701 97.7736 14.4755 97.7736 14.0328C97.7736 13.5966 97.658 13.202 97.4267 12.8487C97.1955 12.4956 96.8694 12.2462 96.4504 12.1007C96.0312 11.9555 95.3365 11.8824 94.3647 11.8824ZM91.7886 24.0409V10.1978H95.2569C96.657 10.1978 97.7687 10.5447 98.5907 11.2384C99.4128 11.9321 99.8252 12.8704 99.8252 14.0526C99.8252 14.8584 99.6232 15.5557 99.2202 16.1435C98.8174 16.7314 98.2393 17.1705 97.4862 17.4612C97.9288 17.7522 98.3608 18.1484 98.7846 18.6505C99.2075 19.1526 99.8018 20.0279 100.568 21.2763C101.05 22.0626 101.436 22.6537 101.727 23.05L102.461 24.0409H100.102L99.4982 23.1289C99.4784 23.0954 99.4387 23.0396 99.3803 22.96L98.9938 22.4147L98.3806 21.4037L97.7174 20.3228C97.3075 19.7548 96.9327 19.3023 96.5927 18.9659C96.252 18.6294 95.9448 18.3874 95.6703 18.239C95.3959 18.0906 94.9347 18.0159 94.2865 18.0159H93.7704V24.0409H91.7886Z" fill="#1C1B19"/>
<path fill-rule="evenodd" clip-rule="evenodd" d="M108.066 24.0409H110.048V10.1979H108.066V24.0409Z" fill="#1C1B19"/>
<path fill-rule="evenodd" clip-rule="evenodd" d="M124.509 18.1747L122.277 13.1604L120.205 18.1747H124.509ZM121.598 10.1185H122.991L129.198 24.0408H127.169L125.325 19.9385H119.418L117.689 24.0408H115.652L121.598 10.1185Z" fill="#1C1B19"/>
<path fill-rule="evenodd" clip-rule="evenodd" d="M145.78 10.1979H147.633V24.041H145.642V13.2697L141.386 18.6208H141.019L136.714 13.2697V24.041H134.732V10.1979H136.609L141.208 15.8829L145.78 10.1979Z" fill="#1C1B19"/>
<path fill-rule="evenodd" clip-rule="evenodd" d="M168.208 17.8875H166.354V22.2772H168.307C169.389 22.2772 170.125 22.1927 170.512 22.0242C170.898 21.8559 171.208 21.5932 171.442 21.2366C171.677 20.8796 171.795 20.4967 171.795 20.0869C171.795 19.6647 171.67 19.2782 171.422 18.9281C171.175 18.5776 170.823 18.3165 170.368 18.145C169.911 17.9732 169.192 17.8875 168.208 17.8875ZM168.058 11.9619H166.354V16.1236H167.673C168.729 16.1236 169.48 15.9222 169.927 15.5192C170.373 15.1164 170.596 14.5945 170.596 13.9534C170.596 12.6257 169.75 11.9619 168.058 11.9619ZM169.06 24.0407H164.373V10.198H168C169.142 10.198 170.034 10.3513 170.675 10.6585C171.315 10.9658 171.804 11.389 172.142 11.9271C172.478 12.4656 172.646 13.0882 172.646 13.7949C172.646 15.1561 171.943 16.1301 170.536 16.7179C171.546 16.9095 172.351 17.3259 172.949 17.967C173.546 18.6075 173.845 19.374 173.845 20.2655C173.845 20.9725 173.664 21.6032 173.3 22.1576C172.937 22.713 172.403 23.1654 171.701 23.5159C170.996 23.8657 170.117 24.0407 169.06 24.0407Z" fill="#1C1B19"/>
<path fill-rule="evenodd" clip-rule="evenodd" d="M179.877 24.0409H181.859V10.1979H179.877V24.0409Z" fill="#1C1B19"/>
<path fill-rule="evenodd" clip-rule="evenodd" d="M195.861 11.8824C194.276 11.8824 192.974 12.378 191.955 13.3689C190.935 14.3598 190.425 15.6248 190.425 17.164C190.425 18.657 190.936 19.8989 191.959 20.8898C192.983 21.8807 194.263 22.3763 195.801 22.3763C197.345 22.3763 198.634 21.8707 199.666 20.8599C200.7 19.8492 201.216 18.591 201.216 17.0847C201.216 15.618 200.7 14.3842 199.666 13.3835C198.634 12.3829 197.365 11.8824 195.861 11.8824ZM195.781 10C197.92 10 199.7 10.6775 201.124 12.0312C202.546 13.3852 203.257 15.0831 203.257 17.1243C203.257 19.1656 202.539 20.8551 201.104 22.1928C199.668 23.5306 197.857 24.1997 195.673 24.1997C193.586 24.1997 191.849 23.5306 190.459 22.1928C189.069 20.8551 188.375 19.1789 188.375 17.164C188.375 15.0964 189.074 13.3852 190.473 12.0312C191.873 10.6775 193.642 10 195.781 10Z" fill="#1C1B19"/>
</svg>
