<svg width="6464" height="1954" viewBox="0 0 6464 1954" fill="none" xmlns="http://www.w3.org/2000/svg">
<path d="M1149.95 1363.99C1149.95 1681.54 892.524 1938.96 574.974 1938.96C257.425 1938.96 0 1681.54 0 1363.99C0 1046.44 257.425 789.016 574.974 789.016C892.524 789.016 1149.95 1046.44 1149.95 1363.99ZM211.939 1363.99C211.939 1564.49 374.476 1727.03 574.974 1727.03C775.473 1727.03 938.01 1564.49 938.01 1363.99C938.01 1163.49 775.473 1000.95 574.974 1000.95C374.476 1000.95 211.939 1163.49 211.939 1363.99Z" fill="black"/>
<path d="M1149.95 1363.99C1149.95 1681.54 892.524 1938.96 574.974 1938.96C257.425 1938.96 0 1681.54 0 1363.99C0 1046.44 257.425 789.016 574.974 789.016C892.524 789.016 1149.95 1046.44 1149.95 1363.99ZM211.939 1363.99C211.939 1564.49 374.476 1727.03 574.974 1727.03C775.473 1727.03 938.01 1564.49 938.01 1363.99C938.01 1163.49 775.473 1000.95 574.974 1000.95C374.476 1000.95 211.939 1163.49 211.939 1363.99Z" fill="black"/>
<path d="M1149.95 1363.99C1149.95 1681.54 892.524 1938.96 574.974 1938.96C257.425 1938.96 0 1681.54 0 1363.99C0 1046.44 257.425 789.016 574.974 789.016C892.524 789.016 1149.95 1046.44 1149.95 1363.99ZM211.939 1363.99C211.939 1564.49 374.476 1727.03 574.974 1727.03C775.473 1727.03 938.01 1564.49 938.01 1363.99C938.01 1163.49 775.473 1000.95 574.974 1000.95C374.476 1000.95 211.939 1163.49 211.939 1363.99Z" fill="black"/>
<path d="M1149.95 1363.99C1149.95 1681.54 892.524 1938.96 574.974 1938.96C257.425 1938.96 0 1681.54 0 1363.99C0 1046.44 257.425 789.016 574.974 789.016C892.524 789.016 1149.95 1046.44 1149.95 1363.99ZM211.939 1363.99C211.939 1564.49 374.476 1727.03 574.974 1727.03C775.473 1727.03 938.01 1564.49 938.01 1363.99C938.01 1163.49 775.473 1000.95 574.974 1000.95C374.476 1000.95 211.939 1163.49 211.939 1363.99Z" fill="#011240"/>
<path d="M2092.57 1363.99C2092.57 1681.54 1835.15 1938.96 1517.6 1938.96C1200.05 1938.96 942.625 1681.54 942.625 1363.99C942.625 1046.44 1200.05 789.016 1517.6 789.016C1835.15 789.016 2092.57 1046.44 2092.57 1363.99ZM1171.11 1363.99C1171.11 1555.35 1326.24 1710.48 1517.6 1710.48C1708.96 1710.48 1864.09 1555.35 1864.09 1363.99C1864.09 1172.63 1708.96 1017.5 1517.6 1017.5C1326.24 1017.5 1171.11 1172.63 1171.11 1363.99Z" fill="black"/>
<path d="M2092.57 1363.99C2092.57 1681.54 1835.15 1938.96 1517.6 1938.96C1200.05 1938.96 942.625 1681.54 942.625 1363.99C942.625 1046.44 1200.05 789.016 1517.6 789.016C1835.15 789.016 2092.57 1046.44 2092.57 1363.99ZM1171.11 1363.99C1171.11 1555.35 1326.24 1710.48 1517.6 1710.48C1708.96 1710.48 1864.09 1555.35 1864.09 1363.99C1864.09 1172.63 1708.96 1017.5 1517.6 1017.5C1326.24 1017.5 1171.11 1172.63 1171.11 1363.99Z" fill="black"/>
<path d="M2092.57 1363.99C2092.57 1681.54 1835.15 1938.96 1517.6 1938.96C1200.05 1938.96 942.625 1681.54 942.625 1363.99C942.625 1046.44 1200.05 789.016 1517.6 789.016C1835.15 789.016 2092.57 1046.44 2092.57 1363.99ZM1171.11 1363.99C1171.11 1555.35 1326.24 1710.48 1517.6 1710.48C1708.96 1710.48 1864.09 1555.35 1864.09 1363.99C1864.09 1172.63 1708.96 1017.5 1517.6 1017.5C1326.24 1017.5 1171.11 1172.63 1171.11 1363.99Z" fill="#FF1D1D"/>
<path d="M2092.57 1363.99C2092.57 1681.54 1835.15 1938.96 1517.6 1938.96C1200.05 1938.96 942.625 1681.54 942.625 1363.99C942.625 1046.44 1200.05 789.016 1517.6 789.016C1835.15 789.016 2092.57 1046.44 2092.57 1363.99ZM1171.11 1363.99C1171.11 1555.35 1326.24 1710.48 1517.6 1710.48C1708.96 1710.48 1864.09 1555.35 1864.09 1363.99C1864.09 1172.63 1708.96 1017.5 1517.6 1017.5C1326.24 1017.5 1171.11 1172.63 1171.11 1363.99Z" fill="#F21A05"/>
<path d="M1861.74 229.99C1861.74 102.97 1964.71 0 2091.73 0V1320.34H1861.74V229.99Z" fill="#F21A05"/>
<path d="M791.242 1042.14L907.244 1180.38L340.831 1655.66L224.829 1517.41L791.242 1042.14Z" fill="black"/>
<path d="M791.242 1042.14L907.244 1180.38L340.831 1655.66L224.829 1517.41L791.242 1042.14Z" fill="#011240"/>
<path d="M2594.63 1337.88C2594.63 1354.26 2607.73 1369 2625.75 1369H3292.42C3310.43 1369 3323.54 1354.26 3323.54 1337.88V1203.56C3323.54 1187.18 3310.43 1172.44 3292.42 1172.44H2807.57V885.79H3212.15C3228.53 885.79 3243.28 872.686 3243.28 854.668V718.714C3243.28 702.334 3228.53 687.592 3212.15 687.592H2807.57V418.96H3292.42C3310.43 418.96 3323.54 404.218 3323.54 387.838V253.522C3323.54 237.142 3310.43 222.4 3292.42 222.4H2625.75C2607.73 222.4 2594.63 237.142 2594.63 253.522V1337.88Z" fill="#011240"/>
<path d="M3538.4 1337.88C3538.4 1354.26 3551.5 1369 3569.52 1369H4169.03C4187.05 1369 4200.15 1354.26 4200.15 1337.88V1203.56C4200.15 1187.18 4187.05 1172.44 4169.03 1172.44H3751.34V253.522C3751.34 237.142 3736.6 222.4 3720.22 222.4H3569.52C3551.5 222.4 3538.4 237.142 3538.4 253.522V1337.88Z" fill="#011240"/>
<path d="M4365.4 1337.88C4365.4 1354.26 4380.14 1369 4396.52 1369H4548.85C4565.23 1369 4579.97 1354.26 4579.97 1337.88V253.522C4579.97 237.142 4565.23 222.4 4548.85 222.4H4396.52C4380.14 222.4 4365.4 237.142 4365.4 253.522V1337.88Z" fill="#011240"/>
<path d="M5043.17 1337.88C5043.17 1354.26 5057.91 1369 5074.29 1369H5226.63C5243.01 1369 5257.75 1354.26 5257.75 1337.88V418.96H5508.36C5526.38 418.96 5539.48 404.218 5539.48 387.838V253.522C5539.48 237.142 5526.38 222.4 5508.36 222.4H4792.56C4774.54 222.4 4761.43 237.142 4761.43 253.522V387.838C4761.43 404.218 4774.54 418.96 4792.56 418.96H5043.17V1337.88Z" fill="#011240"/>
<path d="M5721.86 1337.88C5721.86 1354.26 5734.97 1369 5752.99 1369H6419.65C6437.67 1369 6450.77 1354.26 6450.77 1337.88V1203.56C6450.77 1187.18 6437.67 1172.44 6419.65 1172.44H5934.8V885.79H6339.39C6355.77 885.79 6370.51 872.686 6370.51 854.668V718.714C6370.51 702.334 6355.77 687.592 6339.39 687.592H5934.8V418.96H6419.65C6437.67 418.96 6450.77 404.218 6450.77 387.838V253.522C6450.77 237.142 6437.67 222.4 6419.65 222.4H5752.99C5734.97 222.4 5721.86 237.142 5721.86 253.522V1337.88Z" fill="#011240"/>
<path d="M2605.95 1938.18C2605.95 1943.35 2610.08 1948 2615.25 1948H2737.78C2837.56 1948 2919.25 1866.83 2919.25 1766.53C2919.25 1667.27 2837.56 1586.1 2737.78 1586.1H2615.25C2610.08 1586.1 2605.95 1590.75 2605.95 1595.92V1938.18ZM2672.64 1884.93V1648.66H2731.58C2798.79 1648.66 2847.9 1696.22 2847.9 1766.53C2847.9 1837.36 2798.79 1884.93 2731.58 1884.93H2672.64Z" fill="#F21A05"/>
<path d="M3399.72 1938.18C3399.72 1943.35 3403.86 1948 3409.54 1948H3619.96C3625.65 1948 3629.79 1943.35 3629.79 1938.18V1895.78C3629.79 1890.61 3625.65 1885.96 3619.96 1885.96H3466.93V1795.48H3594.63C3599.8 1795.48 3604.45 1791.35 3604.45 1785.66V1742.75C3604.45 1737.58 3599.8 1732.93 3594.63 1732.93H3466.93V1648.14H3619.96C3625.65 1648.14 3629.79 1643.49 3629.79 1638.32V1595.92C3629.79 1590.75 3625.65 1586.1 3619.96 1586.1H3409.54C3403.86 1586.1 3399.72 1590.75 3399.72 1595.92V1938.18Z" fill="#F21A05"/>
<path d="M4207.43 1953.17C4280.32 1953.17 4326.33 1904.05 4326.33 1850.8C4326.33 1784.11 4268.43 1754.13 4218.28 1733.96C4176.41 1716.9 4157.28 1700.36 4157.28 1676.06C4157.28 1656.41 4173.3 1639.87 4202.77 1639.87C4231.21 1639.87 4252.4 1654.34 4274.64 1668.3C4280.84 1672.44 4288.59 1668.3 4292.73 1662.1L4312.38 1632.63C4315.99 1627.46 4314.44 1618.67 4309.27 1615.57C4298.93 1607.81 4258.61 1580.93 4205.87 1580.93C4123.67 1580.93 4089.55 1634.18 4089.55 1680.19C4089.55 1741.2 4138.15 1772.22 4186.75 1791.87C4230.17 1809.44 4252.4 1827.54 4252.4 1853.91C4252.4 1876.14 4232.24 1893.71 4205.36 1893.71C4171.75 1893.71 4148.49 1877.69 4127.29 1861.66C4122.64 1858.04 4113.85 1858.04 4109.71 1865.28L4091.1 1897.33C4086.45 1905.61 4088.52 1908.71 4093.69 1912.84C4108.68 1925.77 4142.28 1953.17 4207.43 1953.17Z" fill="#F21A05"/>
<path d="M4804 1938.18C4804 1943.35 4808.66 1948 4813.83 1948H4861.91C4867.08 1948 4871.73 1943.35 4871.73 1938.18V1595.92C4871.73 1590.75 4867.08 1586.1 4861.91 1586.1H4813.83C4808.66 1586.1 4804 1590.75 4804 1595.92V1938.18Z" fill="#F21A05"/>
<path d="M5351.91 1767.57C5351.91 1870.97 5434.63 1952.65 5537.51 1952.65C5612.48 1952.65 5665.73 1919.05 5665.73 1919.05C5667.8 1917.5 5669.86 1914.91 5669.86 1910.78V1778.42C5669.86 1773.25 5665.73 1768.6 5660.56 1768.6H5561.29C5555.61 1768.6 5551.47 1772.74 5551.47 1778.42V1819.27C5551.47 1824.44 5555.61 1828.57 5561.29 1828.57H5602.65V1872.52C5592.31 1876.65 5570.08 1885.44 5541.13 1885.44C5475.99 1885.44 5424.81 1831.16 5424.81 1767.05C5424.81 1702.42 5475.99 1647.11 5540.61 1647.11C5569.05 1647.11 5596.45 1657.45 5618.68 1677.09C5623.33 1681.23 5627.99 1681.23 5632.12 1677.09L5664.18 1643.49C5668.31 1639.35 5667.8 1633.15 5663.66 1629.01C5628.5 1599.03 5584.04 1580.93 5537.51 1580.93C5434.63 1580.93 5351.91 1664.17 5351.91 1767.57Z" fill="#F21A05"/>
<path d="M6157.8 1938.18C6157.8 1943.35 6162.45 1948 6167.62 1948H6214.67C6220.35 1948 6224.49 1943.35 6224.49 1938.18V1715.87H6225.52L6437.49 1949.55C6440.08 1952.14 6442.66 1953.17 6446.28 1953.17H6453.52C6458.69 1953.17 6463.34 1949.03 6463.34 1943.86V1595.92C6463.34 1590.75 6458.69 1586.1 6453.52 1586.1H6405.96C6400.27 1586.1 6396.13 1590.75 6396.13 1595.92V1809.44H6395.1L6184.16 1584.55C6181.58 1581.96 6178.99 1580.93 6175.37 1580.93H6167.62C6162.45 1580.93 6157.8 1585.07 6157.8 1590.24V1938.18Z" fill="#F21A05"/>
</svg>
